<svg width="40" height="40" viewBox="0 0 40 40" fill="none" xmlns="http://www.w3.org/2000/svg">
<path d="M29.31 11.3973L11.3976 29.3097C11.3038 29.4035 11.1766 29.4562 11.044 29.4562C10.9114 29.4562 10.7842 29.4035 10.6905 29.3097C10.5967 29.216 10.544 29.0888 10.544 28.9562C10.544 28.8236 10.5967 28.6964 10.6905 28.6026L28.6029 10.6902C28.6967 10.5964 28.8238 10.5437 28.9565 10.5437C29.0891 10.5437 29.2162 10.5964 29.31 10.6902C29.4038 10.784 29.4565 10.9111 29.4565 11.0437C29.4564 11.1764 29.4038 11.3035 29.31 11.3973Z" fill="#3F3D3C"/>
<path d="M28.9563 28.9562L11.0439 11.0438C10.9501 10.95 10.8975 10.8229 10.8975 10.6903C10.8975 10.5577 10.9501 10.4305 11.0439 10.3367C11.1377 10.2429 11.2649 10.1903 11.3975 10.1903C11.5301 10.1903 11.6572 10.2429 11.751 10.3367L29.6634 28.2491C29.7572 28.3429 29.8099 28.4701 29.8099 28.6027C29.8099 28.7353 29.7572 28.8625 29.6634 28.9562C29.5697 29.05 29.4425 29.1027 29.3099 29.1027C29.1773 29.1027 29.0501 29.05 28.9563 28.9562Z" fill="#3F3D3C"/>
</svg>
